<?xml version="1.0" encoding="utf-8"?>
<!-- Generator: Adobe Illustrator 27.3.1, SVG Export Plug-In . SVG Version: 6.00 Build 0)  -->
<svg version="1.1" id="Layer_1" xmlns="http://www.w3.org/2000/svg" xmlns:xlink="http://www.w3.org/1999/xlink" x="0px" y="0px"
	 viewBox="0 0 16 16" style="enable-background:new 0 0 16 16;" xml:space="preserve">
<style type="text/css">
	.st0{fill:#FFFFFF;}
	.st1{fill:none;}
</style>
<circle class="st0" cx="8" cy="8" r="8"/>
<g id="Pin_Fill_16">
	<path d="M11.9,6L9.6,5.8L7.3,3.6l0.8-0.8L7.3,2L2,7.3l0.8,0.8l0.8-0.8l2.2,2.2L6,11.9c0,0.5,0.3,0.8,0.7,1c0.4,0.2,0.9,0.1,1.2-0.3
		l2-2l3.3,3.3l0.8-0.8l-3.3-3.3l2-2c0.3-0.3,0.4-0.8,0.3-1.2C12.7,6.3,12.4,6,11.9,6z"/>
	<rect x="2" y="2" class="st1" width="12" height="12"/>
</g>
</svg>
